<svg width="357" height="170" viewBox="0 0 357 170" fill="none" xmlns="http://www.w3.org/2000/svg">
<path d="M52.8082 136.401C48.1835 136.401 44.0026 135.958 40.2655 135.07C36.5751 134.183 32.8613 132.898 29.1242 131.216L30.6658 116.361C34.2627 118.463 37.7897 120.168 41.2465 121.476C44.75 122.738 48.4171 123.368 52.2477 123.368C55.7045 123.368 58.3438 122.808 60.1657 121.686C61.9875 120.565 62.8985 118.79 62.8985 116.361C62.8985 114.539 62.408 113.044 61.427 111.877C60.4927 110.709 59.0679 109.658 57.1526 108.723C55.2374 107.789 52.8549 106.785 50.0054 105.71C45.7077 104.122 42.0406 102.394 39.0042 100.525C36.0145 98.6565 33.7255 96.4142 32.1373 93.7982C30.5957 91.1355 29.8249 87.8655 29.8249 83.9882C29.8249 79.9708 30.876 76.4206 32.9781 73.3374C35.0802 70.2543 38.0699 67.8485 41.9472 66.1201C45.8245 64.3917 50.4258 63.5275 55.7512 63.5275C60.189 63.5275 64.1597 64.018 67.6633 64.999C71.2136 65.98 74.4836 67.3113 77.4733 68.993L75.9317 83.8481C72.8018 81.6525 69.6486 79.854 66.4721 78.4526C63.2955 77.0045 59.8153 76.2804 56.0315 76.2804C53.0418 76.2804 50.7294 76.8877 49.0945 78.1023C47.4595 79.3168 46.642 81.0453 46.642 83.2875C46.642 85.9969 47.7865 88.029 50.0755 89.3837C52.3644 90.7384 56.0315 92.3968 61.0766 94.3588C64.3466 95.62 67.1728 96.928 69.5552 98.2827C71.9844 99.6374 73.9931 101.132 75.5813 102.767C77.1696 104.402 78.3375 106.271 79.0849 108.373C79.879 110.428 80.2761 112.811 80.2761 115.52C80.2761 119.958 79.2017 123.742 77.0528 126.872C74.9507 129.955 71.8442 132.314 67.7334 133.949C63.6692 135.584 58.6942 136.401 52.8082 136.401ZM101.697 135L81.2363 64.9289H98.1935L110.246 113.839L123.419 66.3303H137.994L151.027 113.839L163.219 64.9289H180.177L159.716 135H145.141L130.706 89.3136L116.272 135H101.697ZM185.444 135V64.9289H202.822V135H185.444ZM185.444 54.2781V36.9005H202.822V54.2781H185.444ZM234.807 136.401C230.182 136.401 226.001 135.958 222.264 135.07C218.574 134.183 214.86 132.898 211.123 131.216L212.664 116.361C216.261 118.463 219.788 120.168 223.245 121.476C226.749 122.738 230.416 123.368 234.246 123.368C237.703 123.368 240.343 122.808 242.164 121.686C243.986 120.565 244.897 118.79 244.897 116.361C244.897 114.539 244.407 113.044 243.426 111.877C242.491 110.709 241.067 109.658 239.151 108.723C237.236 107.789 234.854 106.785 232.004 105.71C227.706 104.122 224.039 102.394 221.003 100.525C218.013 98.6565 215.724 96.4142 214.136 93.7982C212.594 91.1355 211.824 87.8655 211.824 83.9882C211.824 79.9708 212.875 76.4206 214.977 73.3374C217.079 70.2543 220.069 67.8485 223.946 66.1201C227.823 64.3917 232.425 63.5275 237.75 63.5275C242.188 63.5275 246.158 64.018 249.662 64.999C253.212 65.98 256.482 67.3113 259.472 68.993L257.93 83.8481C254.801 81.6525 251.647 79.854 248.471 78.4526C245.294 77.0045 241.814 76.2804 238.03 76.2804C235.041 76.2804 232.728 76.8877 231.093 78.1023C229.458 79.3168 228.641 81.0453 228.641 83.2875C228.641 85.9969 229.785 88.029 232.074 89.3837C234.363 90.7384 238.03 92.3968 243.075 94.3588C246.345 95.62 249.172 96.928 251.554 98.2827C253.983 99.6374 255.992 101.132 257.58 102.767C259.168 104.402 260.336 106.271 261.084 108.373C261.878 110.428 262.275 112.811 262.275 115.52C262.275 119.958 261.2 123.742 259.052 126.872C256.949 129.955 253.843 132.314 249.732 133.949C245.668 135.584 240.693 136.401 234.807 136.401ZM269.822 135V29.8933H287.199V75.1593L283.275 72.0761C286.218 70.0207 289.418 68.1288 292.875 66.4004C296.332 64.672 300.466 63.8078 305.278 63.8078C311.444 63.8078 316.466 65.1858 320.343 67.942C324.22 70.6514 327.07 74.4352 328.892 79.2935C330.713 84.105 331.624 89.6874 331.624 96.0405V135H314.247V97.3017C314.247 90.7618 313.196 85.9269 311.094 82.797C308.991 79.6672 305.558 78.1023 300.793 78.1023C296.729 78.1023 293.389 79.0599 290.773 80.9752C288.204 82.8437 285.938 85.3897 283.976 88.6129L287.199 79.2234V135H269.822Z" fill="white"/>
<path d="M21.9021 33.941L22.9049 41.5538C24.0968 50.6025 31.4203 57.8283 40.9016 59.3104L43.2041 59.6703L40.9016 60.0302C31.4203 61.5123 24.0968 68.738 22.9049 77.7867L21.9021 85.3995L20.8993 77.7867C19.7074 68.7381 12.3839 61.5123 2.90258 60.0302L0.600098 59.6703L2.90258 59.3103C12.3839 57.8283 19.7074 50.6025 20.8993 41.5538L21.9021 33.941Z" fill="white"/>
</svg>
